<svg xmlns="http://www.w3.org/2000/svg" xmlns:xlink="http://www.w3.org/1999/xlink" width="30" height="30" viewBox="0 0 30 30">
  <defs>
    <clipPath id="clip-path">
      <rect id="사각형_13" data-name="사각형 13" width="24" height="20.189" fill="none"/>
    </clipPath>
  </defs>
  <g id="그룹_17" data-name="그룹 17" transform="translate(-1694 -35)">
    <rect id="사각형_8" data-name="사각형 8" width="30" height="30" rx="7" transform="translate(1694 35)" fill="#2a362c"/>
    <g id="그룹_16" data-name="그룹 16" transform="translate(1697 38)">
      <g id="그룹_15" data-name="그룹 15" clip-path="url(#clip-path)">
        <path id="패스_33" data-name="패스 33" d="M20.21,0H3.791A3.8,3.8,0,0,0,0,3.8v9.024a3.8,3.8,0,0,0,3.791,3.8H9.446l1.93,3.143a.7.7,0,0,0,.063.089.646.646,0,0,0,1.12,0,.455.455,0,0,0,.065-.094l1.93-3.142H20.21a3.8,3.8,0,0,0,3.79-3.8V3.8A3.8,3.8,0,0,0,20.21,0" transform="translate(0 0)" fill="#fff"/>
        <path id="패스_34" data-name="패스 34" d="M26.046,45.173a1.951,1.951,0,0,0-1.249.578v-2.33h-1.47v6.122h1.485v-.48a1.409,1.409,0,0,0,1.234.633,2.165,2.165,0,0,0,2.071-2.284s-.076-2.239-2.071-2.239M25.722,48.4a.944.944,0,1,1,.944-.945.945.945,0,0,1-.944.945" transform="translate(-20.716 -38.56)" fill="#2a362c"/>
        <path id="패스_35" data-name="패스 35" d="M70.326,42.2v1.416s.67-.03.67,1.218v3.624h1.416V44.5s.061-2.3-2.087-2.3" transform="translate(-62.453 -37.474)" fill="#2a362c"/>
        <path id="패스_36" data-name="패스 36" d="M100.639,59.238s-2.428,0-2.428,2.267a2.194,2.194,0,0,0,2.428,2.237s2.484,0,2.484-2.237a2.231,2.231,0,0,0-2.484-2.267m0,3.212a.944.944,0,1,1,.944-.945.945.945,0,0,1-.944.945" transform="translate(-87.216 -52.606)" fill="#2a362c"/>
        <path id="패스_37" data-name="패스 37" d="M152.028,59.383v.411a1.606,1.606,0,0,0-1.233-.559,2.026,2.026,0,0,0-2.079,2.252s-.023,2.18,2.021,2.18a1.68,1.68,0,0,0,1.29-.56v.343a.934.934,0,0,1-.936,1.073h-.354v1.3h.571a2.133,2.133,0,0,0,2.147-2.3V59.383Zm-.878,3.063a.944.944,0,1,1,.944-.945.944.944,0,0,1-.944.945" transform="translate(-132.067 -52.603)" fill="#2a362c"/>
      </g>
    </g>
  </g>
</svg>
