<svg xmlns="http://www.w3.org/2000/svg" xmlns:xlink="http://www.w3.org/1999/xlink" width="140" height="26.415" viewBox="0 0 140 26.415">
  <defs>
    <clipPath id="clip-path">
      <rect id="사각형_37" data-name="사각형 37" width="140" height="26.415" fill="none"/>
    </clipPath>
  </defs>
  <g id="그룹_56" data-name="그룹 56" transform="translate(0 0)">
    <path id="패스_39" data-name="패스 39" d="M49.457,26.216,43.26,6.867h4.655L51.6,18.738,55.5,6.867h4.681L53.64,26.216Z" transform="translate(-11.362 -2.655)" fill="#2a362c"/>
    <path id="패스_40" data-name="패스 40" d="M67.288,26.262H62.607L69.143,7.07h4.184l6.2,19.192H74.871l-.76-2.328H68.072Zm2.3-6.746H72.7l-1.516-4.655Z" transform="translate(-16.444 -2.701)" fill="#2a362c"/>
    <g id="그룹_55" data-name="그룹 55" transform="translate(0 0)">
      <g id="그룹_54" data-name="그룹 54" clip-path="url(#clip-path)">
        <path id="패스_41" data-name="패스 41" d="M91.265,24.782a8.97,8.97,0,0,1-5.047-5.023,8.613,8.613,0,0,1-.7-3.515A9.174,9.174,0,0,1,88.2,9.716a9.078,9.078,0,0,1,3.064-2.034,9.256,9.256,0,0,1,6.956,0,8.991,8.991,0,0,1,3.038,2.034L98.271,12.7A4.934,4.934,0,0,0,96.614,11.6a5.809,5.809,0,0,0-1.884-.351,5.445,5.445,0,0,0-1.859.351A4.948,4.948,0,0,0,91.214,12.7a5.327,5.327,0,0,0-1.079,1.632,4.893,4.893,0,0,0-.376,1.909,4.677,4.677,0,0,0,.376,1.882,5.319,5.319,0,0,0,1.079,1.632,4.622,4.622,0,0,0,1.658,1.079,4.834,4.834,0,0,0,1.859.377,5.055,5.055,0,0,0,1.884-.377,4.61,4.61,0,0,0,1.658-1.079l2.988,3.013a8.657,8.657,0,0,1-3.038,2.01,9.256,9.256,0,0,1-6.956,0" transform="translate(-22.118 -1.811)" fill="#2a362c"/>
        <path id="패스_42" data-name="패스 42" d="M118.112,7.038a9.36,9.36,0,0,1,3.591.728,9.133,9.133,0,0,1,2.938,1.959,9.215,9.215,0,0,1,1.983,10.12,8.987,8.987,0,0,1-1.983,2.912,9.213,9.213,0,0,1-10.12,1.984,9.456,9.456,0,0,1-4.9-4.9,9.218,9.218,0,0,1,4.9-12.079,9.36,9.36,0,0,1,3.591-.728m0,14.187a4.451,4.451,0,0,0,1.933-.4,4.837,4.837,0,0,0,1.583-1.054,5.181,5.181,0,0,0,1.079-1.583,5.161,5.161,0,0,0,0-3.867,5.158,5.158,0,0,0-2.662-2.661,5.133,5.133,0,0,0-3.867,0,5.226,5.226,0,0,0-1.583,1.079,4.846,4.846,0,0,0-1.054,1.582,4.453,4.453,0,0,0-.4,1.935,4.445,4.445,0,0,0,.4,1.932,4.838,4.838,0,0,0,2.637,2.637,4.452,4.452,0,0,0,1.933.4" transform="translate(-28.165 -1.82)" fill="#2a362c"/>
        <path id="패스_43" data-name="패스 43" d="M145.915,7.839a10,10,0,0,1,2.811,2.034,9.679,9.679,0,0,1,1.884,2.913,9.253,9.253,0,0,1,.678,3.54,8.875,8.875,0,0,1-.678,3.465,9.545,9.545,0,0,1-1.857,2.862,8.846,8.846,0,0,1-2.814,1.959,9.777,9.777,0,0,1-3.49.855h-4.244V6.935h4.244v.026a9.03,9.03,0,0,1,3.466.879m-1.632,12.831a5.95,5.95,0,0,0,1.456-1.054,4.544,4.544,0,0,0,.955-1.483,5.124,5.124,0,0,0,.351-1.807,5.538,5.538,0,0,0-.351-1.882,5.227,5.227,0,0,0-2.438-2.713,5.368,5.368,0,0,0-1.807-.527V21.2a5.947,5.947,0,0,0,1.833-.529" transform="translate(-35.746 -1.793)" fill="#2a362c"/>
        <path id="패스_44" data-name="패스 44" d="M170.287,14.1v4.244h-6.153v2.913h7.583V25.5H159.89V7.1l11.828-.025v4.244h-7.583V14.1Z" transform="translate(-41.354 -1.829)" fill="#2a362c"/>
        <path id="패스_45" data-name="패스 45" d="M0,.69,2.059,25.047a.637.637,0,0,0,1.085.4L27.5,1.088A.637.637,0,0,0,27.051,0H.636A.637.637,0,0,0,0,.69" transform="translate(0 0)" fill="#2a362c"/>
        <path id="패스_46" data-name="패스 46" d="M28.134,29.516l-1.2-14.268a.637.637,0,0,0-1.085-.4L11.575,29.119a.637.637,0,0,0,.451,1.088H27.5a.637.637,0,0,0,.634-.69" transform="translate(-2.945 -3.792)" fill="#2a362c"/>
        <path id="패스_47" data-name="패스 47" d="M184.207,24.351a2.73,2.73,0,1,0,2.731,2.73,2.731,2.731,0,0,0-2.731-2.73m.1,4.1a1.347,1.347,0,0,0,.965-.4l.515.515a2.093,2.093,0,1,1,0-2.961l-.515.515a1.351,1.351,0,0,0-.965-.4,1.366,1.366,0,0,0,0,2.731" transform="translate(-46.938 -6.298)" fill="#2a362c"/>
      </g>
    </g>
  </g>
</svg>
