<svg xmlns="http://www.w3.org/2000/svg" width="30" height="30" viewBox="0 0 30 30">
  <g id="그룹_14" data-name="그룹 14" transform="translate(-1794 -35)">
    <rect id="사각형_6" data-name="사각형 6" width="30" height="30" rx="7" transform="translate(1794 35)" fill="#2a362c"/>
    <g id="그룹_8" data-name="그룹 8" transform="translate(1796.224 38.047)">
      <g id="그룹_13" data-name="그룹 13" transform="translate(4.812 3.453)">
        <path id="패스_30" data-name="패스 30" d="M19.437,11.658a7.9,7.9,0,1,0,7.9,7.9,7.9,7.9,0,0,0-7.9-7.9m0,13.025a5.123,5.123,0,1,1,5.118-5.121,5.118,5.118,0,0,1-5.118,5.121" transform="translate(-11.543 -10.465)" fill="#fff"/>
        <path id="패스_31" data-name="패스 31" d="M35.444,8.283a1.489,1.489,0,1,0,1.488,1.488,1.489,1.489,0,0,0-1.488-1.488" transform="translate(-19.968 -8.283)" fill="#fff"/>
      </g>
    </g>
  </g>
</svg>
