<svg xmlns="http://www.w3.org/2000/svg" xmlns:xlink="http://www.w3.org/1999/xlink" width="1500" height="880" viewBox="0 0 1500 880">
  <defs>
    <clipPath id="clip-path">
      <rect id="사각형_44" data-name="사각형 44" width="140" height="140" fill="#1b543a"/>
    </clipPath>
    <clipPath id="clip-path-2">
      <rect id="사각형_46" data-name="사각형 46" width="155.549" height="140" fill="#1b543a" stroke="#1b543a" stroke-width="3"/>
    </clipPath>
    <clipPath id="clip-path-3">
      <rect id="사각형_45" data-name="사각형 45" width="140" height="140" fill="none" stroke="#1b543a" stroke-width="5"/>
    </clipPath>
  </defs>
  <g id="그룹_50" data-name="그룹 50" transform="translate(-420 -3030)">
    <rect id="사각형_34" data-name="사각형 34" width="1500" height="880" transform="translate(420 3030)" fill="#fff"/>
    <text id="Partnership" transform="translate(500 3202)" font-size="22" font-family="SUITE-Bold, SUITE" font-weight="700" letter-spacing="-0.005em"><tspan x="0" y="0">PARTNERSHIP</tspan></text>
    <g id="그룹_49" data-name="그룹 49" transform="translate(0 -42)">
      <g id="그룹_46" data-name="그룹 46">
        <g id="사각형_19" data-name="사각형 19" transform="translate(500 3310)" fill="#fff" stroke="#000" stroke-width="1">
          <rect width="440" height="480" stroke="none"/>
          <rect x="0.5" y="0.5" width="439" height="479" fill="none"/>
        </g>
        <text id="빠른_대응_시스템" data-name="빠른 대응 시스템" transform="translate(540 3394)" font-size="20" font-family="SUITE-Bold, SUITE" font-weight="700" letter-spacing="-0.01em"><tspan x="0" y="0">빠른 대응 시스템</tspan></text>
        <text id="시안_회신_:_24시간_이내_차_제안_견적_회신_:_당일_24시간_이내_제공_현장_미팅_:_사전_조율_후_바로_진행_야간_주말_시공_:_가능_사전_일정_필요_" data-name="시안 회신 : 24시간 이내 차 제안
견적 회신 : 당일 ~ 24시간 이내 제공
현장 미팅 : 사전 조율 후 바로 진행
야간/주말 시공 : 가능 (사전 일정 필요)" transform="translate(540 3448)" font-size="16" font-family="SUITE-Regular, SUITE" letter-spacing="-0.01em"><tspan x="0" y="0">시안 회신 : 24시간 이내 차 제안</tspan><tspan x="0" y="28">견적 회신 : 당일 ~ 24시간 이내 제공</tspan><tspan x="0" y="56">현장 미팅 : 사전 조율 후 바로 진행</tspan><tspan x="0" y="84">야간/주말 시공 : 가능 (사전 일정 필요)</tspan></text>
        <g id="그룹_58" data-name="그룹 58" transform="translate(760 3610)">
          <g id="그룹_58-2" data-name="그룹 58" clip-path="url(#clip-path)">
            <path id="패스_50" data-name="패스 50" d="M173.659,302.075a3.061,3.061,0,1,0,1.959-5.8,23.553,23.553,0,0,0-24.156,5.643,23.5,23.5,0,1,0,38.823,8.821,3.067,3.067,0,0,0-5.79,2.023,17.384,17.384,0,0,1-28.7,18.012,17.356,17.356,0,0,1,17.859-28.7" transform="translate(-113.901 -232.582)" fill="#1b543a"/>
            <path id="패스_51" data-name="패스 51" d="M130.161,231.091a3.057,3.057,0,0,0-1.335-4.118,38.738,38.738,0,1,0,16.885,16.816,3.066,3.066,0,0,0-5.456,2.8,32.751,32.751,0,1,1-14.222-14.163,3.071,3.071,0,0,0,4.128-1.332" transform="translate(-56.95 -175.575)" fill="#1b543a"/>
            <path id="패스_52" data-name="패스 52" d="M97.057,176.578a3.057,3.057,0,0,0-1.137,4.177A48.106,48.106,0,1,1,78.691,163.3a3.062,3.062,0,1,0,3.131-5.264,54.585,54.585,0,0,0-34.065-7.163A54.079,54.079,0,1,0,92.509,242.8a53.5,53.5,0,0,0,15.441-31.413,54.316,54.316,0,0,0-6.708-33.672,3.071,3.071,0,0,0-4.186-1.135" transform="translate(0 -118.635)" fill="#1b543a"/>
            <path id="패스_53" data-name="패스 53" d="M329.6,13.144a3.067,3.067,0,0,0-2.834-1.889h-8.211V3.061A3.068,3.068,0,0,0,313.319.9L294.811,19.365a3.057,3.057,0,0,0-.9,2.164V31.822L241.856,83.764a3.064,3.064,0,0,0,4.338,4.328l52.363-52.248h9.7a3.071,3.071,0,0,0,2.169-.9L328.936,16.48a3.055,3.055,0,0,0,.665-3.335M306.988,29.723h-6.941V22.8l12.374-12.347v3.865a3.064,3.064,0,0,0,3.068,3.061h3.873Z" transform="translate(-189.834 -0.001)" fill="#1b543a"/>
          </g>
        </g>
      </g>
      <g id="그룹_47" data-name="그룹 47">
        <g id="사각형_35" data-name="사각형 35" transform="translate(950 3310)" fill="#fff" stroke="#000" stroke-width="1">
          <rect width="440" height="480" stroke="none"/>
          <rect x="0.5" y="0.5" width="439" height="479" fill="none"/>
        </g>
        <text id="시공_네트워크" data-name="시공 네트워크" transform="translate(990 3394)" font-size="20" font-family="SUITE-Bold, SUITE" font-weight="700" letter-spacing="-0.01em"><tspan x="0" y="0">시공 네트워크</tspan></text>
        <text id="본사_:_서울_경기권_제작_협력_:_수도권_3개_제작_공장_시공팀_:_전문_시공팀_2-3팀_운영" data-name="본사 : 서울/경기권
제작 협력 : 수도권 3개 제작 공장
시공팀 : 전문 시공팀 2-3팀 운영" transform="translate(990 3448)" font-size="16" font-family="SUITE-Regular, SUITE" letter-spacing="-0.01em"><tspan x="0" y="0">본사 : 서울/경기권</tspan><tspan x="0" y="28">제작 협력 : 수도권 3개 제작 공장</tspan><tspan x="0" y="56">시공팀 : 전문 시공팀 2-3팀 운영</tspan></text>
        <g id="그룹_61" data-name="그룹 61" transform="translate(1194 3610)">
          <g id="그룹_60" data-name="그룹 60" clip-path="url(#clip-path-2)">
            <path id="패스_65" data-name="패스 65" d="M278.183,39.47h-4.528a42.546,42.546,0,0,0-4.893-11.881l3.251-3.238a4.238,4.238,0,0,0,0-5.948l-7.962-7.984a4.218,4.218,0,0,0-5.868,0l-3.238,3.27a41.011,41.011,0,0,0-11.7-4.926V4.17A4.162,4.162,0,0,0,239.1,0H227.88a4.163,4.163,0,0,0-4.146,4.171V8.758a40.953,40.953,0,0,0-11.748,4.927L208.8,10.421a4.285,4.285,0,0,0-5.924,0l-7.91,7.988a4.237,4.237,0,0,0,.008,5.95l4.071,4.053a1.468,1.468,0,1,0,2.071-2.08l-4.063-4.047a1.319,1.319,0,0,1,0-1.81l7.91-7.99a1.28,1.28,0,0,1,1.743-.006l4.013,4.111a1.465,1.465,0,0,0,1.857.2,38.076,38.076,0,0,1,12.909-5.424,1.423,1.423,0,0,0,.357-.118,1.438,1.438,0,0,0,.5-.4,1.474,1.474,0,0,0,.287-.581,1.519,1.519,0,0,0,.04-.371V4.17a1.209,1.209,0,0,1,1.208-1.234H239.1a1.207,1.207,0,0,1,1.206,1.234V9.926a1.47,1.47,0,0,0,1.154,1.435,38.175,38.175,0,0,1,12.882,5.43A1.472,1.472,0,0,0,256.2,16.6l4.071-4.111a1.2,1.2,0,0,1,1.7,0l7.962,7.983a1.32,1.32,0,0,1,.008,1.8l-4.069,4.053a1.468,1.468,0,0,0-.2,1.829,39.6,39.6,0,0,1,5.383,13.083,1.469,1.469,0,0,0,1.437,1.164h5.7a1.252,1.252,0,0,1,1.206,1.234V54.977a1.252,1.252,0,0,1-1.206,1.234h-5.7a1.469,1.469,0,0,0-1.437,1.16,39.891,39.891,0,0,1-5.383,13.087,1.468,1.468,0,0,0,.2,1.829l4.061,4.047a1.318,1.318,0,0,1,0,1.805l-7.97,7.992a1.2,1.2,0,0,1-1.693,0L256.2,82.02a1.47,1.47,0,0,0-1.851-.193,38.175,38.175,0,0,1-12.882,5.43,1.47,1.47,0,0,0-1.154,1.434V94.45a1.25,1.25,0,0,1-1.206,1.232,1.469,1.469,0,1,0,0,2.937,4.212,4.212,0,0,0,4.143-4.169V89.856a41.011,41.011,0,0,0,11.7-4.926L258.18,88.2a4.222,4.222,0,0,0,5.864,0l7.97-7.992a4.238,4.238,0,0,0-.008-5.95l-3.244-3.232a42.832,42.832,0,0,0,4.891-11.881h4.53a4.212,4.212,0,0,0,4.143-4.171V43.641a4.213,4.213,0,0,0-4.143-4.171" transform="translate(-126.777 0.001)" fill="#1b543a" stroke="#1b543a" stroke-width="3"/>
            <path id="패스_66" data-name="패스 66" d="M135.639,146.637a29.99,29.99,0,0,0-22.259-6.313,30.757,30.757,0,0,0-15.22,54.64,29.973,29.973,0,0,0,18.658,6.521,30.738,30.738,0,0,0,18.821-54.848m-15.575,51.718a27.062,27.062,0,0,1-20.083-5.7,27.818,27.818,0,0,1,13.736-49.416h0a27.548,27.548,0,0,1,3.238-.193,27.086,27.086,0,0,1,16.859,5.894,27.818,27.818,0,0,1-13.754,49.413" transform="translate(-56.587 -91.679)" fill="#1b543a" stroke="#1b543a" stroke-width="3"/>
            <path id="패스_67" data-name="패스 67" d="M110.741,138.929l-4.608-3.672a50.319,50.319,0,0,0,4.446-15.652l5.786-.683a4.654,4.654,0,0,0,3.208-1.759,4.8,4.8,0,0,0,1.016-3.568l-1.181-10.423a1.465,1.465,0,0,0,2.3.774,25.219,25.219,0,0,0-15.024-45.281,24.239,24.239,0,0,0-10.156,2.194,1.469,1.469,0,1,0,1.238,2.665,21.245,21.245,0,0,1,8.917-1.922,22.281,22.281,0,0,1,13.241,40.008,1.452,1.452,0,0,0-.541,1.352l-.368-3.249a4.914,4.914,0,0,0-1.869-3.244,4.679,4.679,0,0,0-3.482-.963l-5.8.683a50.6,50.6,0,0,0-7.86-14.213l3.623-4.636a4.693,4.693,0,0,0,1.054-3.486,4.833,4.833,0,0,0-1.793-3.3L92.079,61.928A4.7,4.7,0,0,0,88.56,60.9,4.789,4.789,0,0,0,85.349,62.7L81.716,67.34a50.245,50.245,0,0,0-15.463-4.428l-.681-5.9A4.944,4.944,0,0,0,63.7,53.742a4.607,4.607,0,0,0-3.418-.94L46.537,54.389a4.809,4.809,0,0,0-4.178,5.325l.681,5.939A49.784,49.784,0,0,0,28.98,73.52l-4.6-3.668a4.836,4.836,0,0,0-6.726.771L9.113,81.542a4.888,4.888,0,0,0,.757,6.818l4.614,3.678a51.538,51.538,0,0,0-4.4,15.646l-5.78.679a4.682,4.682,0,0,0-3.262,1.789A4.925,4.925,0,0,0,.024,113.7l1.623,13.834a4.666,4.666,0,0,0,1.773,3.227,4.923,4.923,0,0,0,3.526,1.026l5.812-.685A51.23,51.23,0,0,0,20.6,145.257l-3.64,4.656a4.829,4.829,0,0,0,.757,6.754l10.841,8.713a4.812,4.812,0,0,0,6.7-.781l3.687-4.656a50.269,50.269,0,0,0,15.413,4.431l.681,5.9a4.843,4.843,0,0,0,4.761,4.248,4.951,4.951,0,0,0,.589-.038l13.68-1.589a4.774,4.774,0,0,0,4.184-5.371l-.632-5.89a49.26,49.26,0,0,0,14.009-7.92l4.622,3.735a4.837,4.837,0,0,0,3.6.962,4.667,4.667,0,0,0,3.105-1.8l8.609-10.929a4.866,4.866,0,0,0-.822-6.752m-1.489,4.936-8.625,10.951a1.762,1.762,0,0,1-1.176.685,1.879,1.879,0,0,1-1.381-.357l-5.525-4.464a1.471,1.471,0,0,0-1.869.018,46.356,46.356,0,0,1-15.109,8.543,1.47,1.47,0,0,0-.992,1.549l.759,7.074a1.85,1.85,0,0,1-1.621,2.118l-13.68,1.589a1.889,1.889,0,0,1-2.08-1.649l-.813-7.048a1.465,1.465,0,0,0-1.316-1.292,47.4,47.4,0,0,1-16.643-4.788,1.47,1.47,0,0,0-1.807.4l-4.424,5.586a1.857,1.857,0,0,1-2.577.29l-10.819-8.7a1.909,1.909,0,0,1-.285-2.646l4.362-5.582a1.468,1.468,0,0,0-.026-1.838,48.378,48.378,0,0,1-8.465-15.28,1.467,1.467,0,0,0-1.563-.985l-6.948.821a1.924,1.924,0,0,1-1.389-.411,1.761,1.761,0,0,1-.675-1.236L2.945,113.386a2,2,0,0,1,.411-1.421,1.793,1.793,0,0,1,1.264-.681l6.978-.822a1.468,1.468,0,0,0,1.29-1.32,48.633,48.633,0,0,1,4.743-16.88,1.467,1.467,0,0,0-.4-1.793l-5.518-4.4a1.917,1.917,0,0,1-.291-2.711l8.527-10.9a1.9,1.9,0,0,1,2.6-.315l5.523,4.406a1.469,1.469,0,0,0,1.853-.018A46.858,46.858,0,0,1,45.1,68.047a1.465,1.465,0,0,0,.994-1.561l-.817-7.126A1.863,1.863,0,0,1,46.9,57.3l13.746-1.587a1.7,1.7,0,0,1,1.268.353,1.976,1.976,0,0,1,.747,1.3l.813,7.048a1.472,1.472,0,0,0,1.318,1.294,47.389,47.389,0,0,1,16.7,4.784,1.465,1.465,0,0,0,1.811-.411L87.661,64.5a1.837,1.837,0,0,1,1.232-.683,1.783,1.783,0,0,1,1.348.4l10.811,8.629a1.915,1.915,0,0,1,.707,1.3,1.79,1.79,0,0,1-.421,1.352l-4.362,5.582A1.469,1.469,0,0,0,97,82.913a47.678,47.678,0,0,1,8.465,15.329,1.482,1.482,0,0,0,1.569,1l7-.823a1.774,1.774,0,0,1,1.327.375,1.944,1.944,0,0,1,.747,1.27l1.573,13.882a1.858,1.858,0,0,1-.4,1.384,1.768,1.768,0,0,1-1.226.671l-6.98.823a1.471,1.471,0,0,0-1.29,1.32,47.5,47.5,0,0,1-4.792,16.867,1.467,1.467,0,0,0,.4,1.805l5.518,4.4a1.91,1.91,0,0,1,.351,2.646" transform="translate(0 -34.525)" fill="#1b543a" stroke="#1b543a" stroke-width="3"/>
          </g>
        </g>
      </g>
      <g id="그룹_48" data-name="그룹 48">
        <g id="사각형_36" data-name="사각형 36" transform="translate(1400 3310)" fill="#fff" stroke="#000" stroke-width="1">
          <rect width="440" height="480" stroke="none"/>
          <rect x="0.5" y="0.5" width="439" height="479" fill="none"/>
        </g>
        <text id="파트너사_혜택" data-name="파트너사 혜택" transform="translate(1440 3394)" font-size="20" font-family="SUITE-Bold, SUITE" font-weight="700" letter-spacing="-0.01em"><tspan x="0" y="0">파트너사 혜택</tspan></text>
        <text id="파트너사_우선_일정_배정_및_시안_견적_빠른_대응_동일_건물_복수_브랜드_진행_시_할인_적용_병의원_관련_소재_조명_허가_노하우_공유" data-name="파트너사 우선 일정 배정
및 시안, 견적 빠른 대응
동일 건물 복수 브랜드 진행 시 할인 적용
병의원 관련 소재, 조명, 허가 노하우 공유" transform="translate(1440 3441.893)" font-size="16" font-family="SUITE-Regular, SUITE" letter-spacing="-0.01em"><tspan x="0" y="0">파트너사 우선 일정 배정</tspan><tspan x="0" y="28">및 시안, 견적 빠른 대응</tspan><tspan x="0" y="56">동일 건물 복수 브랜드 진행 시 할인 적용</tspan><tspan x="0" y="84">병의원 관련 소재, 조명, 허가 노하우 공유</tspan></text>
        <g id="그룹_59" data-name="그룹 59" transform="translate(1660 3610)">
          <g id="그룹_59-2" data-name="그룹 59" clip-path="url(#clip-path-3)">
            <path id="패스_54" data-name="패스 54" d="M38.212,22.463a12.985,12.985,0,1,0-12.984,12.97A12.977,12.977,0,0,0,38.212,22.463Z" transform="translate(5.347 4.132)" fill="none" stroke="#1b543a" stroke-linecap="round" stroke-linejoin="round" stroke-width="5"/>
            <path id="패스_55" data-name="패스 55" d="M10.547,41.481v69.892a7.71,7.71,0,0,0,15.421,0V79.137" transform="translate(4.607 18.055)" fill="none" stroke="#1b543a" stroke-linecap="round" stroke-linejoin="round" stroke-width="5"/>
            <path id="패스_56" data-name="패스 56" d="M36.7,58.329v45.71a7.71,7.71,0,0,1-15.421,0V71.8" transform="translate(9.295 25.388)" fill="none" stroke="#1b543a" stroke-linecap="round" stroke-linejoin="round" stroke-width="5"/>
            <path id="패스_57" data-name="패스 57" d="M14.28,76.721H13.3A11.3,11.3,0,0,1,2,65.432V42.041A13.253,13.253,0,0,1,15.26,28.795H39.832" transform="translate(0.874 12.533)" fill="none" stroke="#1b543a" stroke-linecap="round" stroke-linejoin="round" stroke-width="5"/>
            <path id="패스_58" data-name="패스 58" d="M93.093,22.463a12.985,12.985,0,1,0-12.984,12.97A12.977,12.977,0,0,0,93.093,22.463Z" transform="translate(29.318 4.132)" fill="none" stroke="#1b543a" stroke-linecap="round" stroke-linejoin="round" stroke-width="5"/>
            <path id="패스_59" data-name="패스 59" d="M65.428,58.329v45.71a7.71,7.71,0,0,0,15.421,0V71.8" transform="translate(28.578 25.388)" fill="none" stroke="#1b543a" stroke-linecap="round" stroke-linejoin="round" stroke-width="5"/>
            <path id="패스_60" data-name="패스 60" d="M91.582,41.481v69.892a7.71,7.71,0,0,1-15.421,0V79.137" transform="translate(33.266 18.055)" fill="none" stroke="#1b543a" stroke-linecap="round" stroke-linejoin="round" stroke-width="5"/>
            <path id="패스_61" data-name="패스 61" d="M69.11,28.795H93.68a13.253,13.253,0,0,1,13.26,13.246V65.432a11.3,11.3,0,0,1-11.3,11.29h-.977" transform="translate(30.186 12.533)" fill="none" stroke="#1b543a" stroke-linecap="round" stroke-linejoin="round" stroke-width="5"/>
            <ellipse id="타원_1" data-name="타원 1" cx="14.115" cy="14.1" rx="14.115" ry="14.1" transform="translate(55.886 2.871)" fill="none" stroke="#1b543a" stroke-linecap="round" stroke-linejoin="round" stroke-width="5"/>
            <path id="패스_62" data-name="패스 62" d="M37.053,36.773V112.75a8.382,8.382,0,0,0,16.764,0V77.708" transform="translate(16.184 16.006)" fill="none" stroke="#1b543a" stroke-linecap="round" stroke-linejoin="round" stroke-width="5"/>
            <path id="패스_63" data-name="패스 63" d="M65.484,36.773V112.75a8.381,8.381,0,0,1-16.763,0V77.708" transform="translate(21.28 16.006)" fill="none" stroke="#1b543a" stroke-linecap="round" stroke-linejoin="round" stroke-width="5"/>
            <path id="패스_64" data-name="패스 64" d="M41.111,75.082H40.048A12.279,12.279,0,0,1,27.762,62.809V37.383a14.408,14.408,0,0,1,14.415-14.4h31.4a14.408,14.408,0,0,1,14.415,14.4V62.809A12.279,12.279,0,0,1,75.7,75.082H74.638" transform="translate(12.126 10.003)" fill="none" stroke="#1b543a" stroke-linecap="round" stroke-linejoin="round" stroke-width="5"/>
          </g>
        </g>
      </g>
    </g>
  </g>
</svg>
