<svg xmlns="http://www.w3.org/2000/svg" width="140" height="140" viewBox="0 0 140 140">
  <g fill="#1b543a">
    <path d="M173.659,302.075a3.061,3.061,0,1,0,1.959-5.8,23.553,23.553,0,0,0-24.156,5.643,23.5,23.5,0,1,0,38.823,8.821,3.067,3.067,0,0,0-5.79,2.023,17.384,17.384,0,0,1-28.7,18.012,17.356,17.356,0,0,1,17.859-28.7" transform="translate(-113.901 -232.582)" fill="#1b543a"/>
    <path d="M130.161,231.091a3.057,3.057,0,0,0-1.335-4.118,38.738,38.738,0,1,0,16.885,16.816,3.066,3.066,0,0,0-5.456,2.8,32.751,32.751,0,1,1-14.222-14.163,3.071,3.071,0,0,0,4.128-1.332" transform="translate(-56.95 -175.575)" fill="#1b543a"/>
    <path d="M97.057,176.578a3.057,3.057,0,0,0-1.137,4.177A48.106,48.106,0,1,1,78.691,163.3a3.062,3.062,0,1,0,3.131-5.264,54.585,54.585,0,0,0-34.065-7.163A54.079,54.079,0,1,0,92.509,242.8a53.5,53.5,0,0,0,15.441-31.413,54.316,54.316,0,0,0-6.708-33.672,3.071,3.071,0,0,0-4.186-1.135" transform="translate(0 -118.635)" fill="#1b543a"/>
    <path d="M329.6,13.144a3.067,3.067,0,0,0-2.834-1.889h-8.211V3.061A3.068,3.068,0,0,0,313.319.9L294.811,19.365a3.057,3.057,0,0,0-.9,2.164V31.822L241.856,83.764a3.064,3.064,0,0,0,4.338,4.328l52.363-52.248h9.7a3.071,3.071,0,0,0,2.169-.9L328.936,16.48a3.055,3.055,0,0,0,.665-3.335M306.988,29.723h-6.941V22.8l12.374-12.347v3.865a3.064,3.064,0,0,0,3.068,3.061h3.873Z" transform="translate(-189.834 -0.001)" fill="#1b543a"/>
  </g>
</svg>
