<svg xmlns="http://www.w3.org/2000/svg" width="140" height="140" viewBox="0 0 140 140">
  <g fill="none" stroke="#1b543a" stroke-linecap="round" stroke-linejoin="round" stroke-width="5">
    <path d="M38.212,22.463a12.985,12.985,0,1,0-12.984,12.97A12.977,12.977,0,0,0,38.212,22.463Z" transform="translate(5.347 4.132)"/>
    <path d="M10.547,41.481v69.892a7.71,7.71,0,0,0,15.421,0V79.137" transform="translate(4.607 18.055)"/>
    <path d="M36.7,58.329v45.71a7.71,7.71,0,0,1-15.421,0V71.8" transform="translate(9.295 25.388)"/>
    <path d="M14.28,76.721H13.3A11.3,11.3,0,0,1,2,65.432V42.041A13.253,13.253,0,0,1,15.26,28.795H39.832" transform="translate(0.874 12.533)"/>
    <path d="M93.093,22.463a12.985,12.985,0,1,0-12.984,12.97A12.977,12.977,0,0,0,93.093,22.463Z" transform="translate(29.318 4.132)"/>
    <path d="M65.428,58.329v45.71a7.71,7.71,0,0,0,15.421,0V71.8" transform="translate(28.578 25.388)"/>
    <path d="M91.582,41.481v69.892a7.71,7.71,0,0,1-15.421,0V79.137" transform="translate(33.266 18.055)"/>
    <path d="M69.11,28.795H93.68a13.253,13.253,0,0,1,13.26,13.246V65.432a11.3,11.3,0,0,1-11.3,11.29h-.977" transform="translate(30.186 12.533)"/>
    <ellipse cx="14.115" cy="14.1" rx="14.115" ry="14.1" transform="translate(55.886 2.871)"/>
    <path d="M37.053,36.773V112.75a8.382,8.382,0,0,0,16.764,0V77.708" transform="translate(16.184 16.006)"/>
    <path d="M65.484,36.773V112.75a8.381,8.381,0,0,1-16.763,0V77.708" transform="translate(21.28 16.006)"/>
    <path d="M41.111,75.082H40.048A12.279,12.279,0,0,1,27.762,62.809V37.383a14.408,14.408,0,0,1,14.415-14.4h31.4a14.408,14.408,0,0,1,14.415,14.4V62.809A12.279,12.279,0,0,1,75.7,75.082H74.638" transform="translate(12.126 10.003)"/>
  </g>
</svg>
